# xmcd
#
# Track frame offsets:
#	150
#	11258
#	21459
#	34312
#	46478
#	57983
#	70748
#	89219
#	104410
#	115846
#	130478
#	140978
#	155699
#	169434
#	180478
#	195189
#	205900
#	217586
#
# Disc length: 3064 seconds
#
# Revision: 0
# Processed by: cddbd v1.5PL3 Copyright (c) Steve Scherf et al.
# Submitted via: dBpowerAMP V4.0
#
DISCID=0b0bf612
DTITLE=Ernst Mosch - Seine Musik lebt weiter ...
DYEAR=2002
DGENRE=Blasmusik
TTITLE0=Gute Nachbarn
TTITLE1=So ein schöner Tag
TTITLE2=Böhmischer Leckerbissen
TTITLE3=Der Weg zurück
TTITLE4=Lieblings-Polka
TTITLE5=Bleib bei mir
TTITLE6=Verliebte Stunden
TTITLE7=Rekruten Marsch
TTITLE8=Mein erster Ball
TTITLE9=Böhmische Mädchen sind klasse
TTITLE10=Dompfaff
TTITLE11=Greif nicht nach den Sternen
TTITLE12=Es war nur eine Romanze
TTITLE13=Pfeffer und Salz
TTITLE14=Sag mir jeden Tag
TTITLE15=Egerländer Wirtshauspolka
TTITLE16=Mondschein an der Eger
TTITLE17=Musikantenstolz
EXTD=
EXTT0=
EXTT1=
EXTT2=
EXTT3=
EXTT4=
EXTT5=
EXTT6=
EXTT7=
EXTT8=
EXTT9=
EXTT10=
EXTT11=
EXTT12=
EXTT13=
EXTT14=
EXTT15=
EXTT16=
EXTT17=
PLAYORDER=
